<svg xmlns="http://www.w3.org/2000/svg" viewBox="0 0 66.51 44.21">
  <defs>
    <style>
      .cls-1 {
        fill: none;
        stroke: #ab20fd;
        stroke-miterlimit: 10;
        stroke-width: 0.50px;
      }
    </style>
  </defs>
  <g id="Layer_2" data-name="Layer 2">
    <g id="Layer_1-2" data-name="Layer 1">
      <path class="cls-1" d="M32.28,23.17v1.34h.54V23.19Zm-1.39,0v1.34h.54V23.17ZM30,24.51V23.2a24.43,24.43,0,0,0-6.32,1,13.06,13.06,0,0,0-3.27,1.49,2.6,2.6,0,0,0,.14,1v.59s-1.73.37-2.1,1.17c.09-1.9.14-5.2.14-5.2a12.08,12.08,0,0,0,0-2.24c-.15-.31-.49-1.22-1.42-.65a2.07,2.07,0,0,0,0,.93l-.34,7.44H15.46v.11h2.73c.4-.57,2.26-2.09,10.55-2.93v-.53H28.2v-.88Zm-1.3,3.58v-1.6a33.94,33.94,0,0,0-8.22,1.6c-1.55.58-1.86,1.07-1.9,1.14l0,.22-.23,0H15.43l.48.74,0,1.59-1,.09.12.22h3.23a7.6,7.6,0,0,1,2.57-1.3l1-.29a.58.58,0,0,1,.09-.28.53.53,0,0,0,.13-.47s0-.45,0-.59-.1-.37,0-.47a.32.32,0,0,1,.3-.13c.12,0,.69,0,.81,0a.22.22,0,0,1,.18.27c-.05.1.12.67-.05.94a3.72,3.72,0,0,1,.21.39c.43-.08.87-.14,1.34-.2a36.58,36.58,0,0,1,4-.26h-.2v-.43h-.13V29H28.2v-.88ZM20.89,44v-.48h.33v-.48h.35v-.48h.5v-5.4h-.24v-.79H21.6V36h-.2v-.52h.3a1,1,0,0,1-.1-.43,1,1,0,0,1,.36-.78H21.4v-.43h-.25V33.3h.24v-.36h.22s-.06-.25.05-.33a.86.86,0,0,0,.17-.18l0-1.33v-.05l-.74.22a6.58,6.58,0,0,0-2.51,1.27l-.08.09H15.11v0l.63.85s-.23.48,0,.77h-.26l0,.28h.28v.68s-6.25.14-7.38,2.1c-.6,0-.6,0-.6,0S7.17,36,6.26,36.29s-.63.8-.63.8l.23.25H4A.6.6,0,0,1,4.1,37c.14-.14.6-.34.45-.48A4,4,0,0,0,3.82,36C3.7,36,3.59,36,3.5,35.78a1,1,0,0,0-.25-.45,1.65,1.65,0,0,0-.34-.17,1.16,1.16,0,0,0-1.48-.74c-.57.42-.57.74-.4.88a.72.72,0,0,0,.46.11s-.23,1.14-.29,1.37a3.37,3.37,0,0,1-.19.56,1.66,1.66,0,0,0-.26.2l-.17.26L.12,38v.14H1.81v-.45H8.26c.34-.32,2.31-1.79,10.51-2.1v.31A32.78,32.78,0,0,0,10.28,37a4.31,4.31,0,0,0-1.83.89l0,.06H2.13v.46H.64v.12l-.4.09v.27H1.81v-.46H8.26c.34-.32,2.31-1.79,10.51-2.1v.32a32.94,32.94,0,0,0-8.5,1.14,4.21,4.21,0,0,0-1.83.9l0,.06H2.13v.45H.48l.26.26v.72H.3v.4H.66V42a2.12,2.12,0,0,0,2.13,2.12l20.9,0,0-.08Z" />
      <path class="cls-1" d="M43.09,37.17v-.79h-.23V36h-.19v-.52H43a1,1,0,0,1-.1-.43,1,1,0,0,1,.36-.78h-.55v-.43h-.26V33.3h.24v-.36h.29a.36.36,0,0,1,0-.09A12,12,0,0,1,43.12,31a.86.86,0,0,1-.11-.33,34.28,34.28,0,0,0-5.38-.45.87.87,0,0,1,0,.28.75.75,0,0,1-.23.54h.32v.4h-.29v6.07H36.35V31.44h-.28V31h.37a.75.75,0,0,1-.23-.54.87.87,0,0,1,0-.28,1,1,0,0,1,.1-.17h-.29v-.41h-.2v-.43h-.13V29h-5v.24h-.13v.43h-.2v.41h-.29a1,1,0,0,1,.1.17.87.87,0,0,1,.05.28.75.75,0,0,1-.23.54h.37v.4h-.28v6.07H29V31.44h-.29V31h.32a.75.75,0,0,1-.23-.54.87.87,0,0,1,.05-.28,34.28,34.28,0,0,0-5.38.45.86.86,0,0,1-.11.33,12,12,0,0,1,.22,1.85.36.36,0,0,1,0,.09h.29v.36h.24v.51h-.26v.43h-.55a1,1,0,0,1,.36.78,1,1,0,0,1-.1.43h.29V36h-.19v.41h-.23v.79h-.24v5.4h.49v.48H24v.23H42.48v-.23h.36v-.48h.49v-5.4ZM38,34.23l4.18.2,0,.54L38,34.77Zm0,1,4.18.2,0,.53L38,35.8Zm3.54,3.65.08.33H24.89l.08-.33Zm-16.49-.29.08-.33H41.38l.08.33Zm16.64.92.08.33h-17l.08-.33Zm.16.62.08.33H24.58l.08-.33Zm.15.62.08.33H24.43l.08-.33Zm-.8-3.21.11.43H25.2l.11-.43ZM28.51,34.23l0,.54-4.18.2,0-.54Zm0,1,0,.54L24.36,36l0-.53Zm-4.16,6.15H42.16l.08.33h-18ZM24.2,42H42.31l.08.33H24.12ZM24,43l.08-.33H42.47l.08.33Z" />
      <path class="cls-1" d="M33.69,23.19v1.32h.54V23.17Zm1.39,0v1.34h.54V23.17Zm14.58,5.57-.34-7.44a2.07,2.07,0,0,0,0-.93c-.93-.57-1.27.34-1.42.65a12.08,12.08,0,0,0,0,2.24s0,3.3.14,5.2c-.37-.8-2.1-1.17-2.1-1.17V26.7a2.6,2.6,0,0,0,.14-1,13.06,13.06,0,0,0-3.27-1.49,24.43,24.43,0,0,0-6.32-1v1.31h1.84v.88h-.54v.53c8.29.84,10.15,2.36,10.55,2.93h2.73v-.11Zm1,3,0-1.59.48-.74H48.16l-.23,0,0-.22c0-.07-.35-.56-1.9-1.14a33.94,33.94,0,0,0-8.22-1.6v1.6h.54V29H38.1v.24H38v.43h-.2a36.58,36.58,0,0,1,4,.26c.47.06.91.12,1.34.2a3.72,3.72,0,0,1,.21-.39c-.17-.27,0-.84,0-.94a.22.22,0,0,1,.18-.27c.12,0,.69,0,.81,0a.32.32,0,0,1,.3.13c.1.1,0,.32,0,.47s0,.59,0,.59a.53.53,0,0,0,.13.47.58.58,0,0,1,.09.28l1,.29a7.6,7.6,0,0,1,2.57,1.3h3.23l.12-.22Zm15.3,6-.17-.26a1.66,1.66,0,0,0-.26-.2,3.37,3.37,0,0,1-.19-.56c-.06-.23-.29-1.37-.29-1.37a.72.72,0,0,0,.46-.11c.17-.14.17-.46-.4-.88a1.16,1.16,0,0,0-1.48.74,1.65,1.65,0,0,0-.34.17,1,1,0,0,0-.25.45c-.09.2-.2.2-.32.26a4,4,0,0,0-.73.45c-.15.14.31.34.45.48a.6.6,0,0,1,.14.37h-1.9l.23-.25s.28-.46-.63-.8-1.5,1.05-1.5,1.05,0,0-.6,0c-1.13-2-7.38-2.1-7.38-2.1v-.68h.28l0-.28h-.26c.23-.29,0-.77,0-.77l.63-.85v0H48.06L48,32.54a6.58,6.58,0,0,0-2.51-1.27l-.74-.22v.05l0,1.33a.86.86,0,0,0,.17.18c.11.08.06.28,0,.33h.22v.36h.24v.51h-.25v.43h-.56a1,1,0,0,1,.36.78,1,1,0,0,1-.1.43h.3V36h-.2v.41h-.23v.79h-.24v5.4h.5v.48h.35v.48h.33V44H42.8l0,.08,20.9,0A2.12,2.12,0,0,0,65.85,42V40.61h.36v-.4h-.44v-.72l.26-.26H64.38v-.45H58.11l0-.06a4.21,4.21,0,0,0-1.83-.9,32.94,32.94,0,0,0-8.5-1.14v-.32c8.2.31,10.17,1.78,10.51,2.1H64.7v.46h1.57v-.27l-.4-.09v-.12H64.38V38H58.11l0-.06A4.31,4.31,0,0,0,56.23,37a32.78,32.78,0,0,0-8.5-1.15v-.31c8.2.31,10.17,1.78,10.51,2.1H64.7v.45h1.68V38Z" />
      <rect class="cls-1" x="24.36" y="43.61" width="17.8" height="0.29" />
      <path class="cls-1" d="M45.43,24.65A9.53,9.53,0,0,0,43.65,18a12.41,12.41,0,0,0-6.59-4.39v-1h-.68v-2h.42L38,10.1,38.27,7a1.33,1.33,0,0,0,.78-1.1c0-.72-.79-1.31-1.82-1.41l.24-1.82c1,0,1.86-.28,1.9-.75s-.85-1-2-1.1a3.87,3.87,0,0,0-1.4.1A3.81,3.81,0,0,0,33.5.12H33a3.81,3.81,0,0,0-2.46.79,3.87,3.87,0,0,0-1.4-.1c-1.16.1-2.06.6-2,1.1s.87.78,1.9.75l.24,1.82c-1,.1-1.82.69-1.82,1.41A1.33,1.33,0,0,0,28.24,7l.25,3.11,1.22.53h.42v2h-.68v1A12.41,12.41,0,0,0,22.86,18a9.53,9.53,0,0,0-1.78,6.64,1.16,1.16,0,0,0-.37.32,14.37,14.37,0,0,1,2.82-1.2,24,24,0,0,1,5.18-1c.44,0,.88-.06,1.33-.08V16.57a.17.17,0,0,1-.07-.14.16.16,0,0,1,.05-.11l0,0h0a.18.18,0,0,1-.18-.18.19.19,0,0,1,0-.13.18.18,0,0,1,.07-.05h0a.17.17,0,0,1,.05-.12.13.13,0,0,1,.09,0,.18.18,0,0,1-.09-.16.11.11,0,0,1,0-.08.71.71,0,0,1-.18-.48c0-.38.62-.88.62-.88s.59.5.59.88a.72.72,0,0,1-.19.5.13.13,0,0,1,0,.06.19.19,0,0,1-.05.13l0,0h0a.18.18,0,0,1,.17.17,0,0,0,0,1,0,0,.18.18,0,0,1,0,.27.14.14,0,0,1-.1.05.16.16,0,0,1,.08.14.17.17,0,0,1,0,.12.09.09,0,0,1-.05,0v6.1h.54V16.57a.17.17,0,0,1-.07-.14.16.16,0,0,1,.05-.11l0,0h0a.18.18,0,0,1-.18-.18.19.19,0,0,1,.05-.13.18.18,0,0,1,.07-.05h0a.17.17,0,0,1,.05-.12.13.13,0,0,1,.09,0,.18.18,0,0,1-.09-.16.19.19,0,0,1,0-.08.71.71,0,0,1-.18-.48c0-.38.62-.88.62-.88s.59.5.59.88a.72.72,0,0,1-.19.5.13.13,0,0,1,0,.06.19.19,0,0,1-.05.13l0,0h0a.18.18,0,0,1,.17.17v0a.18.18,0,0,1,.07.15.17.17,0,0,1-.05.12.14.14,0,0,1-.1.05.16.16,0,0,1,.08.14.17.17,0,0,1-.05.12.09.09,0,0,1,0,0v6.11l.54,0V16.57a.17.17,0,0,1-.07-.14.16.16,0,0,1,0-.11l0,0h0a.18.18,0,0,1-.18-.18.19.19,0,0,1,0-.13l.07-.05h0a.17.17,0,0,1,0-.12.13.13,0,0,1,.09,0,.2.2,0,0,1-.09-.16.19.19,0,0,1,0-.08.7.7,0,0,1-.17-.48c0-.35.53-.81.6-.88s.61.53.61.88a.7.7,0,0,1-.17.48.19.19,0,0,1,0,.08.2.2,0,0,1-.09.16.13.13,0,0,1,.09,0,.17.17,0,0,1,0,.12h0l.07.05a.19.19,0,0,1,.05.13.18.18,0,0,1-.18.18h0l0,0a.16.16,0,0,1,0,.11.17.17,0,0,1-.07.14v6.14l.54,0V16.58a.09.09,0,0,1,0,0,.17.17,0,0,1,0-.12.16.16,0,0,1,.08-.14.14.14,0,0,1-.1-.05.17.17,0,0,1,0-.12.18.18,0,0,1,.07-.15v0a.18.18,0,0,1,.17-.17h0l0,0a.19.19,0,0,1-.05-.13.13.13,0,0,1,0-.06.72.72,0,0,1-.19-.5c0-.38.59-.88.59-.88s.62.5.62.88a.71.71,0,0,1-.18.48.19.19,0,0,1,0,.08.18.18,0,0,1-.09.16.13.13,0,0,1,.09,0,.17.17,0,0,1,0,.12h0a.18.18,0,0,1,.07.05.19.19,0,0,1,.05.13.18.18,0,0,1-.18.18h0l0,0a.16.16,0,0,1,0,.11.17.17,0,0,1-.07.14v6.11h.54v-6.1a.09.09,0,0,1,0,0,.17.17,0,0,1,0-.12.16.16,0,0,1,.08-.14.14.14,0,0,1-.1-.05.18.18,0,0,1,0-.27,0,0,0,0,1,0,0,.18.18,0,0,1,.17-.17h0l0,0a.19.19,0,0,1-.05-.13.13.13,0,0,1,0-.06.72.72,0,0,1-.19-.5c0-.38.59-.88.59-.88s.62.5.62.88a.71.71,0,0,1-.18.48.11.11,0,0,1,0,.08.18.18,0,0,1-.09.16.13.13,0,0,1,.09,0,.17.17,0,0,1,0,.12h0a.18.18,0,0,1,.07.05.19.19,0,0,1,0,.13.18.18,0,0,1-.18.18h0l0,0a.16.16,0,0,1,0,.11.17.17,0,0,1-.07.14v6.14c.45,0,.89,0,1.33.08a24,24,0,0,1,5.18,1A14.37,14.37,0,0,1,45.8,25,1.16,1.16,0,0,0,45.43,24.65Zm-14-12h-.8v-2h.8Zm1.39,0H32v-2h.85Zm0-8.32a.87.87,0,0,0-.66.81.77.77,0,0,0,.11.39h-.69a2.05,2.05,0,0,0-1.73-1L29.66,2.6a3.16,3.16,0,0,0,.55-.13,3.16,3.16,0,0,0,2.68,1.2Zm1.61,8.32h-.85v-2h.85Zm1.34,0H35v-2h.8Zm-1-7.12h-.69a.77.77,0,0,0,.11-.39.87.87,0,0,0-.66-.81V3.67a3.16,3.16,0,0,0,2.68-1.2,3.16,3.16,0,0,0,.55.13l-.26,1.88A2.05,2.05,0,0,0,34.86,5.52Z" />
      <rect class="cls-1" x="30.36" y="25.39" width="5.79" height="2.7" />
      <polygon class="cls-1" points="24.36 43.53 24.36 43.61 23.81 43.61 23.89 43.28 24.03 43.28 24.03 43.53 24.36 43.53" />
      <polygon class="cls-1" points="24.36 43.9 24.36 44.01 23.71 44.01 23.73 43.9 24.36 43.9" />
    </g>
  </g>
</svg>