<svg width="1440" height="851" viewBox="0 0 1440 851" fill="none" xmlns="http://www.w3.org/2000/svg">
<g clip-path="url(#clip0_13_1156)">
<rect width="1440" height="851" fill="#171717"/>
<g opacity="0.5" clip-path="url(#clip1_13_1156)">
<mask id="mask0_13_1156" style="mask-type:alpha" maskUnits="userSpaceOnUse" x="-299" y="532" width="2039" height="418">
<rect x="-298.664" y="532" width="2038" height="418" fill="url(#paint0_radial_13_1156)"/>
</mask>
<g mask="url(#mask0_13_1156)">
<path d="M1110.15 527.465L1158.04 555.535H1078.46L1039.28 527.465H1110.15Z" stroke="white" stroke-miterlimit="10"/>
<path d="M1158.04 555.535L1219.35 591.471H1128.62L1078.46 555.535H1158.04Z" fill="url(#paint1_linear_13_1156)" stroke="white" stroke-miterlimit="10"/>
<path d="M1219.35 591.471L1300.61 639.133H1195.12L1128.62 591.471H1219.35Z" stroke="white" stroke-miterlimit="10"/>
<path d="M1300.61 639.116L1413.51 705.297H1287.49L1195.12 639.116H1300.61Z" stroke="white" stroke-miterlimit="10"/>
<path d="M1413.51 705.297L1580.97 803.453H1424.51L1287.49 705.297H1413.51Z" fill="url(#paint2_linear_13_1156)" stroke="white" stroke-miterlimit="10"/>
<path d="M1580.98 803.453L1855.08 964.144H1648.76L1424.51 803.453H1580.98Z" stroke="white" stroke-miterlimit="10"/>
<path d="M1039.28 527.465L1078.46 555.535H998.889L968.407 527.465H1039.28Z" fill="url(#paint3_linear_13_1156)" stroke="white" stroke-miterlimit="10"/>
<path d="M1078.46 555.535L1128.62 591.471H1037.9L998.901 555.535H1078.46Z" stroke="white" stroke-miterlimit="10"/>
<path d="M1128.62 591.471L1195.12 639.133H1089.62L1037.9 591.471H1128.62Z" stroke="white" stroke-miterlimit="10"/>
<path d="M1195.12 639.116L1287.49 705.298H1161.46L1089.62 639.116H1195.12Z" stroke="white" stroke-miterlimit="10"/>
<path d="M1287.49 705.298L1424.5 803.453H1268.03L1161.46 705.298H1287.49Z" stroke="white" stroke-miterlimit="10"/>
<path d="M1424.5 803.453L1648.76 964.144H1442.44L1268.03 803.453H1424.5Z" stroke="white" stroke-miterlimit="10"/>
<path d="M968.406 527.466L998.888 555.535H919.305L897.541 527.466H968.406Z" stroke="white" stroke-miterlimit="10"/>
<path d="M998.889 555.535L1037.89 591.471H947.158L919.293 555.535H998.889Z" stroke="white" stroke-miterlimit="10"/>
<path d="M1037.9 591.471L1089.62 639.133H984.12L947.171 591.471H1037.9Z" stroke="white" stroke-miterlimit="10"/>
<path d="M1089.62 639.116L1161.46 705.298H1035.43L984.12 639.116H1089.62Z" stroke="white" stroke-miterlimit="10"/>
<path d="M1161.46 705.297L1268.03 803.453H1111.58L1035.46 705.297H1161.46Z" stroke="white" stroke-miterlimit="10"/>
<path d="M1268.03 803.453L1442.44 964.144H1236.13L1111.58 803.453H1268.03Z" stroke="white" stroke-miterlimit="10"/>
<path d="M897.542 527.465L919.306 555.535H839.735L826.665 527.465H897.542Z" stroke="white" stroke-miterlimit="10"/>
<path d="M919.306 555.535L947.171 591.471H856.455L839.735 555.535H919.306Z" stroke="white" stroke-miterlimit="10"/>
<path d="M947.171 591.471L984.119 639.133H878.621L856.455 591.471H947.171Z" fill="url(#paint4_linear_13_1156)" stroke="white" stroke-miterlimit="10"/>
<path d="M984.119 639.116L1035.43 705.298H909.405L878.621 639.116H984.119Z" stroke="white" stroke-miterlimit="10"/>
<path d="M1035.43 705.297L1111.58 803.453H955.072L909.405 705.297H1035.43Z" stroke="white" stroke-miterlimit="10"/>
<path d="M1111.58 803.453L1236.13 964.144H1029.81L955.046 803.453H1111.58Z" stroke="white" stroke-miterlimit="10"/>
<path d="M826.664 527.465L839.735 555.535H760.152L755.8 527.465H826.664Z" fill="url(#paint5_linear_13_1156)" stroke="white" stroke-miterlimit="10"/>
<path d="M839.735 555.535L856.455 591.471H765.726L760.152 555.535H839.735Z" stroke="white" stroke-miterlimit="10"/>
<path d="M856.455 591.471L878.621 639.133H773.173L765.788 591.471H856.455Z" stroke="white" stroke-miterlimit="10"/>
<path d="M878.621 639.116L909.405 705.298H783.376L773.173 639.116H878.621Z" stroke="white" stroke-miterlimit="10"/>
<path d="M909.405 705.297L955.071 803.453H798.598L783.376 705.297H909.405Z" stroke="white" stroke-miterlimit="10"/>
<path d="M955.071 803.453L1029.81 964.144H823.494L798.598 803.453H955.071Z" stroke="white" stroke-miterlimit="10"/>
<path d="M755.8 527.465L760.152 555.535H680.582L684.935 527.465H755.8Z" stroke="white" stroke-miterlimit="10"/>
<path d="M760.153 555.535L765.726 591.471H675.047L680.62 555.535H760.153Z" stroke="white" stroke-miterlimit="10"/>
<path d="M765.725 591.471L773.11 639.133H667.612L675.009 591.471H765.725Z" stroke="white" stroke-miterlimit="10"/>
<path d="M773.173 639.116L783.438 705.297H657.346L667.612 639.116H773.173Z" stroke="white" stroke-miterlimit="10"/>
<path d="M783.376 705.297L798.598 803.453H642.124L657.347 705.297H783.376Z" stroke="white" stroke-miterlimit="10"/>
<path d="M798.598 803.453L823.494 964.144H617.178L642.099 803.453H798.598Z" stroke="white" stroke-miterlimit="10"/>
<path d="M684.935 527.466L680.582 555.535H600.999L614.058 527.466H684.935Z" stroke="white" stroke-miterlimit="10"/>
<path d="M680.583 555.535L675.047 591.471H584.281L601 555.535H680.583Z" stroke="white" stroke-miterlimit="10"/>
<path d="M675.047 591.471L667.65 639.133H562.114L584.28 591.471H675.047Z" stroke="white" stroke-miterlimit="10"/>
<path d="M667.612 639.116L657.346 705.297H531.317L562.113 639.116H667.612Z" stroke="white" stroke-miterlimit="10"/>
<path d="M657.346 705.297L642.124 803.453H485.651L531.317 705.297H657.346Z" stroke="white" stroke-miterlimit="10"/>
<path d="M642.124 803.453L617.177 964.144H410.861L485.625 803.453H642.124Z" stroke="white" stroke-miterlimit="10"/>
<path d="M614.058 527.465L600.999 555.535H521.416L543.193 527.465H614.058Z" stroke="white" stroke-miterlimit="10"/>
<path d="M600.999 555.535L584.28 591.471H493.551L521.416 555.535H600.999Z" fill="url(#paint6_linear_13_1156)" stroke="white" stroke-miterlimit="10"/>
<path d="M584.28 591.471L562.114 639.133H456.615L493.551 591.471H584.28Z" stroke="white" stroke-miterlimit="10"/>
<path d="M562.113 639.116L531.317 705.297H405.287L456.615 639.116H562.113Z" stroke="white" stroke-miterlimit="10"/>
<path d="M531.317 705.297L485.651 803.453H329.177L405.288 705.297H531.317Z" stroke="white" stroke-miterlimit="10"/>
<path d="M485.651 803.453L410.861 964.144H204.544L329.152 803.453H485.651Z" stroke="white" stroke-miterlimit="10"/>
<path d="M543.193 527.465L521.416 555.535H441.846L472.315 527.465H543.193Z" fill="url(#paint7_linear_13_1156)" stroke="white" stroke-miterlimit="10"/>
<path d="M521.416 555.535L493.551 591.471H402.834L441.833 555.535H521.416Z" stroke="white" stroke-miterlimit="10"/>
<path d="M493.551 591.471L456.616 639.133H351.117L402.835 591.471H493.551Z" stroke="white" stroke-miterlimit="10"/>
<path d="M456.615 639.116L405.288 705.298H279.271L351.117 639.116H456.615Z" stroke="white" stroke-miterlimit="10"/>
<path d="M405.288 705.297L329.177 803.453H172.703L279.271 705.297H405.288Z" stroke="white" stroke-miterlimit="10"/>
<path d="M329.177 803.453L204.544 964.144H-1.77222L172.704 803.453H329.177Z" stroke="white" stroke-miterlimit="10"/>
<path d="M472.315 527.466L441.846 555.535H362.263L401.451 527.466H472.315Z" stroke="white" stroke-miterlimit="10"/>
<path d="M441.846 555.535L402.847 591.471H312.106L362.263 555.535H441.846Z" stroke="white" stroke-miterlimit="10"/>
<path d="M402.835 591.471L351.118 639.133H245.607L312.106 591.471H402.835Z" fill="url(#paint8_linear_13_1156)" stroke="white" stroke-miterlimit="10"/>
<path d="M351.117 639.116L279.271 705.297H153.241L245.606 639.116H351.117Z" stroke="white" stroke-miterlimit="10"/>
<path d="M279.271 705.297L172.704 803.453H16.23L153.242 705.297H279.271Z" stroke="white" stroke-miterlimit="10"/>
<path d="M172.703 803.453L-1.77289 964.144H-208.09L16.2295 803.453H172.703Z" stroke="white" stroke-miterlimit="10"/>
<path d="M401.451 527.466L362.263 555.535H282.693L330.573 527.466H401.451Z" stroke="white" stroke-miterlimit="10"/>
<path d="M362.263 555.535L312.105 591.471H221.389L282.693 555.535H362.263Z" stroke="white" stroke-miterlimit="10"/>
<path d="M312.105 591.471L245.606 639.133H140.108L221.389 591.471H312.105Z" stroke="white" stroke-miterlimit="10"/>
<path d="M245.606 639.116L153.242 705.298H27.1621L140.058 639.116H245.606Z" fill="url(#paint9_linear_13_1156)" stroke="white" stroke-miterlimit="10"/>
<path d="M153.242 705.297L16.2297 803.453H-140.244L27.162 705.297H153.242Z" stroke="white" stroke-miterlimit="10"/>
<path d="M16.2298 803.453L-208.089 964.144H-414.406L-140.244 803.453H16.2298Z" stroke="white" stroke-miterlimit="10"/>
</g>
</g>
<g opacity="0.5" clip-path="url(#clip2_13_1156)">
<path d="M1152.85 252.926H1074.04L1074.2 252.832H1153.08L1152.85 252.926ZM1074.32 252.849L1050.6 266.419H1050.15L1073.85 252.849H1074.32ZM1186.33 237.264H1101.38L1101.57 237.161H1186.55L1186.33 237.264ZM1101.73 237.186L1074.32 252.849H1073.83L1101.21 237.186H1101.73ZM1225.38 218.985H1133.32L1133.53 218.865H1225.64L1225.38 218.985ZM1133.7 218.899L1101.73 237.186H1101.21L1133.17 218.899H1133.7ZM1271.62 197.352H1171.07L1171.33 197.215H1271.88L1271.62 197.352ZM1171.56 197.258L1133.7 218.899H1133.15L1170.95 197.258H1171.56ZM1327.16 171.371H1216.55L1216.86 171.191H1327.55L1327.16 171.371ZM1217.1 171.259L1171.53 197.258H1170.92L1216.37 171.259H1217.1ZM1395.17 139.574H1272.18L1272.54 139.359H1395.63L1395.17 139.574ZM1272.73 139.445L1217.02 171.259H1216.37L1271.96 139.445H1272.73ZM1480.3 99.7567H1341.7L1342.18 99.4822H1480.77L1480.3 99.7567ZM1342.44 99.6108L1272.73 139.445H1271.99L1341.6 99.6108H1342.44ZM1590.03 48.4542H1431.45L1432.08 48.0939H1590.74L1590.03 48.4542ZM1432.31 48.2741L1342.49 99.6108H1341.65L1431.33 48.2741H1432.31ZM1552.4 -20.3465L1432.31 48.2741H1431.34L1551.27 -20.3465H1552.4ZM1074.11 252.918H995.298L995.42 252.823H1074.23L1074.11 252.918ZM995.488 252.798L977.022 266.393H976.574L994.999 252.798H995.488ZM1101.38 237.212H1016.47L1016.6 237.109H1101.57L1101.38 237.212ZM1016.79 237.135L995.488 252.798H994.999L1016.28 237.135H1016.79ZM1133.35 218.933H1041.31L1041.47 218.813H1133.55L1133.35 218.933ZM1041.67 218.848L1016.79 237.161H1016.28L1041.09 218.873L1041.67 218.848ZM1171.15 197.301H1070.7L1070.89 197.155H1171.44L1171.15 197.301ZM1071.1 197.206L1041.67 218.873H1041.09L1070.48 197.232L1071.1 197.206ZM1216.57 171.311H1106L1106.24 171.139H1216.89L1216.57 171.311ZM1106.51 171.199L1071.19 197.189H1070.57L1105.9 171.199H1106.51ZM1272.28 139.514H1149.31L1149.61 139.291H1272.65L1272.28 139.514ZM1149.84 139.385L1106.57 171.199H1105.89L1149.08 139.385H1149.84ZM1341.88 99.7052H1203.42L1203.79 99.4307H1342.38L1341.88 99.7052ZM1204.02 99.5508L1149.79 139.428H1149.03L1203.12 99.5937L1204.02 99.5508ZM1431.56 48.4113H1273L1273.49 48.0511H1432.08L1431.56 48.4113ZM1273.83 48.2312L1204.02 99.5508H1203.18L1272.87 48.2312H1273.83ZM1367.18 -20.3894L1273.83 48.2312H1272.87L1366.05 -20.3894H1367.18ZM995.175 252.875H916.366L916.448 252.78H995.257L995.175 252.875ZM916.665 252.798L903.485 266.367H903.037L916.176 252.798H916.665ZM1016.47 237.212H931.557L931.666 237.109H1016.6L1016.47 237.212ZM931.87 237.135L916.665 252.798H916.176L931.354 237.135H931.87ZM1041.31 218.933H949.289L949.412 218.813H1041.47L1041.31 218.933ZM949.629 218.848L931.87 237.135H931.354L949.018 218.848H949.629ZM1070.7 197.309H970.269L970.405 197.164H1070.89L1070.7 197.309ZM970.636 197.206L949.629 218.848H949.072L970.024 197.206H970.636ZM1106 171.311H995.461L995.624 171.139H1106.24L1106 171.311ZM995.936 171.199L970.69 197.189H970.079L995.257 171.199H995.936ZM1149.21 139.574H1026.29L1026.5 139.359H1149.51L1149.21 139.574ZM1026.77 139.445L995.882 171.251H995.203L1026.02 139.445H1026.77ZM1203.31 99.7652H1064.89L1065.15 99.4993H1203.75L1203.31 99.7652ZM1065.45 99.6194L1026.77 139.445H1026.02L1064.61 99.6108L1065.45 99.6194ZM1273 48.4885H1114.63L1114.96 48.1283H1273.44L1273 48.4885ZM1115.28 48.2998L1065.45 99.6194H1064.61L1114.31 48.3084L1115.28 48.2998ZM1181.86 -20.3208L1115.28 48.2998H1114.31L1180.77 -20.3208H1181.86ZM916.38 252.849H837.571V252.755H916.38V252.849ZM837.856 252.798L829.962 266.342H829.513L837.367 252.798H837.856ZM931.612 237.212H846.743V237.109H931.666L931.612 237.212ZM847.028 237.135L837.856 252.798H837.367L846.457 237.135H847.028ZM949.344 218.933H857.355V218.813H949.398L949.344 218.933ZM857.667 218.848L847.028 237.135H846.512L857.11 218.848H857.667ZM970.323 197.309H869.923L870.005 197.164H970.459L970.323 197.309ZM870.263 197.215L857.654 218.822H857.097L869.638 197.189L870.263 197.215ZM995.461 171.311H884.952L885.06 171.131H995.624L995.461 171.311ZM885.4 171.208L870.263 197.198H869.652L884.72 171.208H885.4ZM1026.35 139.522H903.472L903.594 139.308H1026.55L1026.35 139.522ZM903.906 139.394L885.4 171.208H884.72L903.159 139.394H903.906ZM1064.95 99.7223H926.53L926.693 99.4479H1065.15L1064.95 99.7223ZM927.087 99.5765L903.852 139.385H903.105L926.204 99.5679L927.087 99.5765ZM1114.68 48.4542H956.314L956.518 48.0939H1114.96L1114.68 48.4542ZM956.844 48.2655L926.951 99.5679H926.109L955.852 48.2655H956.844ZM996.765 -20.3551L956.844 48.2655H955.88L995.637 -20.3551H996.765ZM837.585 252.798H758.776V252.703H837.585V252.798ZM759.075 252.729L756.452 266.316H756.004L758.585 252.746L759.075 252.729ZM846.688 237.135H761.833V237.032H846.729L846.688 237.135ZM762.091 237.058L759.075 252.729H758.585L761.575 237.066L762.091 237.058ZM857.3 218.856H765.339V218.736H857.341L857.3 218.856ZM765.637 218.77L762.091 237.058H761.575L765.067 218.77H765.637ZM869.883 197.258H769.51V197.112H869.937L869.883 197.258ZM769.822 197.164L765.651 218.796H765.08L769.157 197.164H769.822ZM884.952 171.311H774.483V171.139H885.033L884.952 171.311ZM774.891 171.199L769.863 197.189H769.252L774.211 171.199H774.891ZM903.472 139.522H780.638V139.308H903.553L903.472 139.522ZM781.032 139.394L774.891 171.199H774.211L780.203 139.368L781.032 139.394ZM926.584 99.7309H788.288V99.4564H926.693L926.584 99.7309ZM788.737 99.5765L781.032 139.394H780.203L787.813 99.5765H788.737ZM956.369 48.4714H798.071L798.139 48.1111H956.518L956.369 48.4714ZM798.642 48.2827L788.737 99.5765H787.894L797.677 48.2827H798.642ZM811.904 -20.2864L798.642 48.2827H797.677L810.776 -20.2864H811.904ZM758.816 252.798H680.007V252.703H758.816V252.798ZM680.306 252.729L682.956 266.29H682.508L679.79 252.729H680.306ZM761.833 237.135H676.991V237.032H761.86L761.833 237.135ZM677.235 237.058L680.306 252.729H679.817L676.719 237.058H677.235ZM765.339 218.856H673.404V218.736H765.393L765.339 218.856ZM673.662 218.77L677.235 237.058H676.719L673.105 218.77H673.662ZM769.496 197.232H669.151V197.086H769.551L769.496 197.232ZM669.436 197.138L673.662 218.77H673.105L668.784 197.138H669.436ZM774.483 171.259H664.042V171.088H774.537L774.483 171.259ZM664.422 171.148L669.491 197.138H668.784L663.648 171.148H664.422ZM780.638 139.479H657.859V139.265H780.72L780.638 139.479ZM658.213 139.351L664.422 171.148H663.743L657.465 139.351H658.213ZM788.288 99.688H649.978V99.4135H788.356L788.288 99.688ZM650.427 99.5422L658.213 139.351H657.465L649.584 99.5422H650.427ZM798.126 48.437H639.91V48.0768H798.139L798.126 48.437ZM640.413 48.2569L650.427 99.5422H649.584L639.448 48.2569H640.413ZM627.015 -20.3036L640.413 48.2569H639.448L625.86 -20.3036H627.015ZM680.062 252.798H601.334V252.703H680.143L680.062 252.798ZM601.552 252.729L609.473 266.264H608.998L601.035 252.703L601.552 252.729ZM676.937 237.109H592.122V237.006H676.977L676.937 237.109ZM592.353 237.032L601.497 252.703H601.008L591.836 237.032H592.353ZM673.404 218.83H581.483V218.71H673.445L673.404 218.83ZM581.727 218.745L592.407 237.032H591.891L581.17 218.745H581.727ZM669.151 197.206H568.832L568.751 197.069H669.124L669.151 197.206ZM569.104 197.112L581.727 218.745H581.17L568.493 197.112H569.104ZM664.042 171.234H553.641L553.546 171.053H664.015L664.042 171.234ZM553.981 171.131L569.159 197.112H568.547L553.288 171.131H553.981ZM657.859 139.454H535.108L534.985 139.239H657.819L657.859 139.454ZM535.42 139.334L553.981 171.131H553.288L534.646 139.334H535.42ZM650.033 99.6795H511.845L511.682 99.405H649.978L650.033 99.6795ZM512.185 99.5251L535.42 139.334H534.673L511.343 99.5251H512.185ZM639.91 48.437H481.816L481.613 48.0768H639.842L639.91 48.437ZM482.197 48.2483L512.09 99.5251H511.247L481.273 48.2483H482.197ZM442.195 -20.2864L482.197 48.2483H481.273L441.108 -20.2864H442.195ZM601.334 252.746H522.62L522.539 252.652H601.348L601.334 252.746ZM522.811 252.678L536.004 266.239H535.624L522.403 252.678H522.811ZM592.108 237.084H507.307L507.212 236.981H592.054L592.108 237.084ZM507.524 237.006L522.743 252.678H522.267L507.09 237.006H507.524ZM581.415 218.805H489.521L489.412 218.685H581.347L581.415 218.805ZM489.738 218.719L507.524 237.006H507.09L489.249 218.719H489.738ZM568.764 197.181H468.487L468.337 197.035H568.683L568.764 197.181ZM468.786 197.043L489.806 218.676H489.249L468.174 197.043H468.786ZM553.641 171.173H443.282L443.105 171.002H553.546L553.641 171.173ZM443.581 171.062L468.786 197.043H468.174L442.86 171.062H443.581ZM535.108 139.394H412.41L412.206 139.179H534.985L535.108 139.394ZM412.682 139.265L443.581 171.062H442.915L411.935 139.265H412.682ZM511.873 99.6194H373.739L373.468 99.3449H511.71L511.873 99.6194ZM373.93 99.5079L412.614 139.308H411.867L373.087 99.5079H373.93ZM481.803 48.4285H323.804L323.451 48.0682H481.613L481.803 48.4285ZM324.103 48.2483L373.93 99.5079H373.087L323.139 48.2483H324.103ZM257.523 -20.2693L324.103 48.2483H323.139L256.368 -20.2693H257.523ZM522.62 252.72H443.92L443.798 252.626H522.607L522.62 252.72ZM444.097 252.652L462.563 266.222H462.114L443.621 252.652H444.097ZM507.375 237.058H422.601L422.465 236.955H507.28L507.375 237.058ZM422.846 236.981L444.151 252.652H443.676L422.275 236.981H422.846ZM489.643 218.779H397.776L397.613 218.659H489.534L489.643 218.779ZM397.98 218.693L422.846 236.981H422.329L397.369 218.693H397.98ZM468.636 197.164H368.372L368.182 197.018H468.487L468.636 197.164ZM368.495 197.043L397.912 218.676H397.355L367.897 197.043H368.495ZM443.227 171.173H332.895L332.664 170.993H443.051L443.227 171.173ZM333.166 171.062L368.495 197.043H367.883L332.487 171.062H333.166ZM412.356 139.402H289.699L289.414 139.188H412.152L412.356 139.402ZM289.93 139.273L333.166 171.079H332.501L289.183 139.291L289.93 139.273ZM373.658 99.628H235.566L235.199 99.3535H373.386L373.658 99.628ZM235.81 99.4822L289.93 139.273H289.183L234.968 99.4822H235.81ZM323.804 48.4113H165.86L165.371 48.0511H323.451L323.804 48.4113ZM166.037 48.2398L235.756 99.4993H234.913L165.072 48.2398H166.037ZM72.8795 -20.2607L166.037 48.2398H165.072L71.7516 -20.2607H72.8795ZM443.825 252.695H365.152L364.989 252.609H443.703L443.825 252.695ZM365.315 252.626L389.121 266.196H388.672L364.921 252.626H365.315ZM422.506 237.032H337.759L337.582 236.929H422.37L422.506 237.032ZM337.922 236.955L365.41 252.626H364.921L337.501 236.955H337.922ZM397.627 218.753H305.787L305.57 218.633H397.464L397.627 218.753ZM305.964 218.667L337.922 236.955H337.406L305.502 218.667H305.964ZM368.196 197.138H267.972L267.728 196.992H368.005L368.196 197.138ZM268.244 197.043L306.059 218.667H305.502L267.633 197.043H268.244ZM332.949 171.173H222.657L222.345 171.002H332.718L332.949 171.173ZM222.888 171.062L268.244 197.043H267.633L222.168 171.062H222.888ZM289.686 139.402H167.07L166.703 139.188H289.4L289.686 139.402ZM167.26 139.273L222.82 171.062H222.154L166.513 139.273H167.26ZM235.552 99.6366H97.5276L97.0521 99.3621H235.185L235.552 99.6366ZM97.7179 99.4822L167.26 139.273H166.513L96.8754 99.4822H97.7179ZM165.847 48.4199H7.98431L7.35931 48.0596H165.371L165.847 48.4199ZM8.13379 48.2398L97.7179 99.4822H96.8754L7.19626 48.2398H8.13379ZM-111.561 -20.2435L8.13379 48.2398H7.18265L-112.689 -20.2435H-111.561ZM365.247 252.669H286.588L286.397 252.583H365.084L365.247 252.669ZM337.854 237.006H253.121L252.904 236.903H337.678L337.854 237.006ZM305.882 218.728H214.07L213.812 218.607H305.665L305.882 218.728ZM268.068 197.112H167.871L167.559 196.966H267.823L268.068 197.112ZM222.657 171.148H112.393L112.026 170.976H222.345L222.657 171.148ZM167.083 139.411H44.5218L44.0598 139.196H166.716L167.083 139.411ZM97.5412 99.6537H-40.4288L-41.0131 99.3878H97.0656L97.5412 99.6537ZM7.98431 48.4542H-149.824L-150.585 48.0939H7.35931L7.98431 48.4542ZM1123.97 266.445H1124.42L1124.26 266.522H1123.81L1123.97 266.445ZM1737.26 -20.3808L1738.3 -20.8697H1739.43L1738.38 -20.3808H1737.26ZM315.502 266.17L315.665 266.247H315.217L315.054 266.17H315.502ZM-296.49 -20.235H-297.618L-298.664 -20.7239H-297.536L-296.49 -20.235ZM1123.48 266.445L1152.51 252.875H1153.47L1124.38 266.445H1123.48ZM1050.49 266.342H1124.1L1123.77 266.496L1050.22 266.522L1050.49 266.342ZM1152.4 252.875L1185.85 237.212H1186.9L1153.36 252.875H1152.4ZM1185.85 237.212L1224.92 218.925H1226.04L1186.9 237.212H1185.85ZM1224.92 218.925L1271.12 197.284H1272.35L1226.03 218.925H1224.92ZM1271.12 197.284L1326.7 171.311H1328.06L1272.43 197.309L1271.12 197.284ZM1326.7 171.311L1394.64 139.497H1396.15L1328.05 171.311H1326.7ZM1394.64 139.497L1479.73 99.6451H1481.43L1396.15 139.497H1394.64ZM1479.73 99.6451L1589.38 48.3084H1591.39L1481.51 99.6451H1479.73ZM1589.38 48.3084L1736.01 -20.3551H1738.28L1591.39 48.2827L1589.38 48.3084ZM1736.13 -19.8661H1550.94L1552.65 -20.844H1738.22L1736.13 -19.8661ZM976.913 266.316H1050.49L1050.22 266.47H976.696L976.913 266.316ZM1550.93 -19.8747H1365.84L1367.19 -20.8526H1552.67L1550.93 -19.8747ZM903.336 266.29H976.913L976.696 266.445H903.186L903.336 266.29ZM1365.84 -19.8661H1180.85L1181.79 -20.844L1367.19 -20.8268L1365.84 -19.8661ZM829.772 266.264H903.336L903.186 266.419H829.69L829.772 266.264ZM1180.87 -19.849H995.977L996.548 -20.8268H1181.8L1180.87 -19.849ZM756.235 266.239H829.772L829.69 266.393H756.208L756.235 266.239ZM995.977 -19.8404H811.184L811.374 -20.8182H996.548L995.977 -19.8404ZM682.711 266.213H756.235V266.367H682.766L682.711 266.213ZM811.184 -19.8232H626.499L626.309 -20.8011H811.374L811.184 -19.8232ZM609.202 266.187H682.711V266.342H609.338L609.202 266.187ZM626.499 -19.8147L441.868 -19.7975L441.298 -20.7753H626.268L626.499 -19.8147ZM535.705 266.161H609.202L609.297 266.316H535.855L535.705 266.161ZM441.868 -19.7975H257.428L256.477 -20.7668H441.339L441.868 -19.7975ZM462.25 266.144H535.733L535.882 266.299H462.508L462.25 266.144ZM257.428 -19.789H73.0289L71.6701 -20.7668H256.464L257.428 -19.789ZM388.768 266.119L462.25 266.144L462.467 266.299H389.094L388.768 266.119ZM73.0289 -19.7718H-111.262L-112.974 -20.7496H71.6973L73.0289 -19.7718ZM286.968 252.6L315.937 266.17H315.04L286.003 252.6H286.968ZM315.312 266.093H388.768L389.039 266.247H315.665L315.312 266.093ZM253.529 236.929L286.968 252.6H286.003L252.496 236.929H253.529ZM214.491 218.642L253.529 236.929H252.496L213.377 218.642H214.491ZM168.333 197.043L214.532 218.667H213.418L167.111 197.043H168.333ZM112.882 171.062L168.333 197.043H167.111L111.537 171.062H112.882ZM45.1061 139.256L112.95 171.036H111.591L43.6522 139.256H45.1061ZM-39.8038 99.4736L45.1061 139.256H43.6114L-41.4887 99.4736H-39.8038ZM-149.199 48.2312L-39.831 99.4736H-41.5158L-151.115 48.2312H-149.199ZM-111.221 -19.7546H-295.457L-297.536 -20.7239H-112.974L-111.221 -19.7546ZM-295.335 -20.235L-149.199 48.2312H-151.115L-297.618 -20.235H-295.335Z" fill="#8B5CF6"/>
</g>
<g opacity="0.1" filter="url(#filter0_f_13_1156)">
<circle cx="726.336" cy="781" r="501" fill="#9333EA"/>
</g>
<g opacity="0.3" filter="url(#filter1_f_13_1156)">
<ellipse cx="720.836" cy="773.5" rx="544.5" ry="211.5" fill="#8B5CF6"/>
</g>
<g opacity="0.5" filter="url(#filter2_f_13_1156)">
<ellipse cx="720.836" cy="772" rx="397.5" ry="184" fill="#D946EF" fill-opacity="0.3"/>
</g>
<rect y="219" width="1440" height="633" fill="url(#paint10_linear_13_1156)"/>
<mask id="mask1_13_1156" style="mask-type:alpha" maskUnits="userSpaceOnUse" x="-257" y="399" width="2038" height="265">
<rect width="2038" height="265" transform="matrix(1 0 0 -1 -257 664)" fill="url(#paint11_radial_13_1156)"/>
</mask>
<g mask="url(#mask1_13_1156)">
</g>
</g>
<defs>
<filter id="filter0_f_13_1156" x="25.3359" y="80" width="1402" height="1402" filterUnits="userSpaceOnUse" color-interpolation-filters="sRGB">
<feFlood flood-opacity="0" result="BackgroundImageFix"/>
<feBlend mode="normal" in="SourceGraphic" in2="BackgroundImageFix" result="shape"/>
<feGaussianBlur stdDeviation="100" result="effect1_foregroundBlur_13_1156"/>
</filter>
<filter id="filter1_f_13_1156" x="-123.664" y="262" width="1689" height="1023" filterUnits="userSpaceOnUse" color-interpolation-filters="sRGB">
<feFlood flood-opacity="0" result="BackgroundImageFix"/>
<feBlend mode="normal" in="SourceGraphic" in2="BackgroundImageFix" result="shape"/>
<feGaussianBlur stdDeviation="150" result="effect1_foregroundBlur_13_1156"/>
</filter>
<filter id="filter2_f_13_1156" x="223.336" y="488" width="995" height="568" filterUnits="userSpaceOnUse" color-interpolation-filters="sRGB">
<feFlood flood-opacity="0" result="BackgroundImageFix"/>
<feBlend mode="normal" in="SourceGraphic" in2="BackgroundImageFix" result="shape"/>
<feGaussianBlur stdDeviation="50" result="effect1_foregroundBlur_13_1156"/>
</filter>
<radialGradient id="paint0_radial_13_1156" cx="0" cy="0" r="1" gradientUnits="userSpaceOnUse" gradientTransform="translate(720.336 741) scale(697 239.602)">
<stop/>
<stop offset="1" stop-opacity="0"/>
</radialGradient>
<linearGradient id="paint1_linear_13_1156" x1="1148.9" y1="591.471" x2="1148.9" y2="555.535" gradientUnits="userSpaceOnUse">
<stop stop-color="#F5D0FE"/>
<stop offset="1" stop-color="#937C98" stop-opacity="0"/>
</linearGradient>
<linearGradient id="paint2_linear_13_1156" x1="1434.23" y1="803.453" x2="1434.23" y2="705.297" gradientUnits="userSpaceOnUse">
<stop stop-color="#A855F7"/>
<stop offset="1" stop-color="#633291" stop-opacity="0"/>
</linearGradient>
<linearGradient id="paint3_linear_13_1156" x1="1023.43" y1="555.535" x2="1023.43" y2="527.465" gradientUnits="userSpaceOnUse">
<stop stop-color="#A855F7"/>
<stop offset="1" stop-color="#633291" stop-opacity="0"/>
</linearGradient>
<linearGradient id="paint4_linear_13_1156" x1="920.287" y1="591.471" x2="920.287" y2="639.133" gradientUnits="userSpaceOnUse">
<stop stop-color="#635294" stop-opacity="0"/>
<stop offset="1" stop-color="#A78BFA"/>
</linearGradient>
<linearGradient id="paint5_linear_13_1156" x1="797.768" y1="527.465" x2="797.768" y2="555.535" gradientUnits="userSpaceOnUse">
<stop stop-color="#513690" stop-opacity="0"/>
<stop offset="1" stop-color="#8B5CF6"/>
</linearGradient>
<linearGradient id="paint6_linear_13_1156" x1="547.275" y1="555.535" x2="547.275" y2="591.471" gradientUnits="userSpaceOnUse">
<stop stop-color="#756C97" stop-opacity="0"/>
<stop offset="1" stop-color="#C4B5FD"/>
</linearGradient>
<linearGradient id="paint7_linear_13_1156" x1="492.519" y1="527.465" x2="492.519" y2="555.535" gradientUnits="userSpaceOnUse">
<stop stop-color="#633291" stop-opacity="0"/>
<stop offset="1" stop-color="#A855F7"/>
</linearGradient>
<linearGradient id="paint8_linear_13_1156" x1="324.221" y1="591.471" x2="324.221" y2="639.133" gradientUnits="userSpaceOnUse">
<stop stop-color="#816C98" stop-opacity="0"/>
<stop offset="1" stop-color="#D8B4FE"/>
</linearGradient>
<linearGradient id="paint9_linear_13_1156" x1="136.384" y1="705.298" x2="136.384" y2="639.116" gradientUnits="userSpaceOnUse">
<stop stop-color="#8B5CF6"/>
<stop offset="1" stop-color="#513690" stop-opacity="0"/>
</linearGradient>
<linearGradient id="paint10_linear_13_1156" x1="720" y1="219" x2="720" y2="862.321" gradientUnits="userSpaceOnUse">
<stop offset="0.464718" stop-color="#171717" stop-opacity="0"/>
<stop offset="1" stop-color="#171717"/>
</linearGradient>
<radialGradient id="paint11_radial_13_1156" cx="0" cy="0" r="1" gradientUnits="userSpaceOnUse" gradientTransform="translate(1019 132.5) scale(1248 156.591)">
<stop offset="0.277282"/>
<stop offset="0.775475" stop-opacity="0.0628409"/>
</radialGradient>
<clipPath id="clip0_13_1156">
<rect width="1440" height="851" fill="white"/>
</clipPath>
<clipPath id="clip1_13_1156">
<rect width="2038" height="414" fill="white" transform="translate(-298.664 536)"/>
</clipPath>
<clipPath id="clip2_13_1156">
<rect width="2038" height="261" fill="white" transform="matrix(1 0 0 -1 -298.664 264)"/>
</clipPath>
</defs>
</svg>
