<svg width="1440" height="821" viewBox="0 0 1440 821" fill="none" xmlns="http://www.w3.org/2000/svg">
<g clip-path="url(#clip0_15_71)">
<rect width="1440" height="821" fill="#171717"/>
<mask id="mask0_15_71" style="mask-type:alpha" maskUnits="userSpaceOnUse" x="0" y="0" width="1440" height="828">
<rect width="1440" height="828" fill="url(#paint0_radial_15_71)"/>
</mask>
<g mask="url(#mask0_15_71)">
<g opacity="0.6" filter="url(#filter0_f_15_71)">
<rect x="232" y="92" width="995" height="995" fill="#8B5CF6"/>
</g>
<mask id="mask1_15_71" style="mask-type:luminance" maskUnits="userSpaceOnUse" x="0" y="0" width="1440" height="1179">
<path d="M1440 6.67564e-05V130.889H1309.09V6.10352e-05L1440 6.67564e-05Z" fill="white"/>
<path d="M1440 130.889V261.778H1309.09V130.889H1440Z" fill="white"/>
<path d="M1440 261.778V392.667H1309.09V261.778H1440Z" fill="white"/>
<path d="M1440 392.667V523.556H1309.09V392.667H1440Z" fill="white"/>
<path d="M1440 523.556V654.445H1309.09V523.556H1440Z" fill="white"/>
<path d="M1440 654.444V785.333H1309.09V654.444H1440Z" fill="white"/>
<path d="M1440 785.333V916.222H1309.09V785.333H1440Z" fill="white"/>
<path d="M1309.09 6.67565e-05V130.889H1178.18V6.10352e-05L1309.09 6.67565e-05Z" fill="white"/>
<path d="M1309.09 130.889V261.778H1178.18V130.889H1309.09Z" fill="white"/>
<path d="M1309.09 261.778V392.667H1178.18V261.778H1309.09Z" fill="white"/>
<path d="M1309.09 392.667V523.556H1178.18V392.667H1309.09Z" fill="white"/>
<path d="M1309.09 523.556V654.445H1178.18V523.556H1309.09Z" fill="white"/>
<path d="M1309.09 654.444V785.333H1178.18V654.444H1309.09Z" fill="white"/>
<path d="M1309.09 785.333V916.222H1178.18V785.333H1309.09Z" fill="white"/>
<path d="M1178.18 3.62389e-05V130.889H1047.27V3.05176e-05L1178.18 3.62389e-05Z" fill="white"/>
<path d="M1178.18 130.889V261.778H1047.27V130.889H1178.18Z" fill="white"/>
<path d="M1178.18 261.778V392.667H1047.27V261.778H1178.18Z" fill="white"/>
<path d="M1178.18 392.667V523.556H1047.27V392.667H1178.18Z" fill="white"/>
<path d="M1178.18 523.556V654.445H1047.27V523.556H1178.18Z" fill="white"/>
<path d="M1178.18 654.444V785.333H1047.27V654.444H1178.18Z" fill="white"/>
<path d="M1178.18 785.333V916.222H1047.27V785.333H1178.18Z" fill="white"/>
<path d="M1047.27 3.62389e-05V130.889H916.364V3.05176e-05L1047.27 3.62389e-05Z" fill="white"/>
<path d="M1047.27 130.889V261.778H916.364V130.889H1047.27Z" fill="white"/>
<path d="M1047.27 261.778V392.667H916.364V261.778H1047.27Z" fill="white"/>
<path d="M1047.27 392.667V523.556H916.364V392.667H1047.27Z" fill="white"/>
<path d="M1047.27 523.556V654.445H916.364V523.556H1047.27Z" fill="white"/>
<path d="M1047.27 654.444V785.333H916.364V654.444H1047.27Z" fill="white"/>
<path d="M1047.27 785.333V916.222H916.364V785.333H1047.27Z" fill="white"/>
<path d="M916.364 3.62389e-05V130.889H785.455V3.05176e-05L916.364 3.62389e-05Z" fill="white"/>
<path d="M916.364 130.889V261.778H785.455V130.889H916.364Z" fill="white"/>
<path d="M916.364 261.778V392.667H785.455V261.778H916.364Z" fill="white"/>
<path d="M916.909 393V523.889H786V393H916.909Z" fill="white"/>
<path d="M916.364 523.556V654.445H785.455V523.556H916.364Z" fill="white"/>
<path d="M916.364 654.444V785.333H785.455V654.444H916.364Z" fill="white"/>
<path d="M916.364 785.333V916.222H785.455V785.333H916.364Z" fill="white"/>
<path d="M785.454 3.62389e-05V130.889H654.545V3.05176e-05L785.454 3.62389e-05Z" fill="white"/>
<path d="M785.454 130.889V261.778H654.545V130.889H785.454Z" fill="white"/>
<path d="M785.454 261.778V392.667H654.545V261.778H785.454Z" fill="white"/>
<path d="M785.454 392.667V523.556H654.545V392.667H785.454Z" fill="white"/>
<path d="M785.454 523.556V654.445H654.545V523.556H785.454Z" fill="white"/>
<path d="M785.454 654.444V785.333H654.545V654.444H785.454Z" fill="white"/>
<path d="M785.454 785.333V916.222H654.545V785.333H785.454Z" fill="white"/>
<path d="M654.545 3.62389e-05V130.889H523.636V3.05176e-05L654.545 3.62389e-05Z" fill="white"/>
<path d="M654.545 130.889V261.778H523.636V130.889H654.545Z" fill="white"/>
<path d="M654.545 261.778V392.667H523.636V261.778H654.545Z" fill="white"/>
<path d="M654.545 392.667V523.556H523.636V392.667H654.545Z" fill="white"/>
<path d="M654.545 523.556V654.445H523.636V523.556H654.545Z" fill="white"/>
<path d="M654.545 654.444V785.333H523.636V654.444H654.545Z" fill="white"/>
<path d="M654.545 785.333V916.222H523.636V785.333H654.545Z" fill="white"/>
<path d="M523.636 3.62389e-05V130.889H392.727V3.05176e-05L523.636 3.62389e-05Z" fill="white"/>
<path d="M523.636 130.889V261.778H392.727V130.889H523.636Z" fill="white"/>
<path d="M523.636 261.778V392.667H392.727V261.778H523.636Z" fill="white"/>
<path d="M523.636 392.667V523.556H392.727V392.667H523.636Z" fill="white"/>
<path d="M523.636 523.556V654.445H392.727V523.556H523.636Z" fill="white"/>
<path d="M523.636 654.444V785.333H392.727V654.444H523.636Z" fill="white"/>
<path d="M523.636 785.333V916.222H392.727V785.333H523.636Z" fill="white"/>
<path d="M392.727 5.72136e-06V130.889H261.818V0L392.727 5.72136e-06Z" fill="white"/>
<path d="M392.727 130.889V261.778H261.818V130.889H392.727Z" fill="white"/>
<path d="M392.727 261.778V392.667H261.818V261.778H392.727Z" fill="white"/>
<path d="M392.727 392.667V523.556H261.818V392.667H392.727Z" fill="white"/>
<path d="M392.727 523.556V654.445H261.818V523.556H392.727Z" fill="white"/>
<path d="M392.727 654.444V785.333H261.818V654.444H392.727Z" fill="white"/>
<path d="M392.727 785.333V916.222H261.818V785.333H392.727Z" fill="white"/>
<path d="M261.818 5.72131e-06V130.889H130.909V0L261.818 5.72131e-06Z" fill="white"/>
<path d="M261.818 130.889V261.778H130.909V130.889H261.818Z" fill="white"/>
<path d="M261.818 261.778V392.667H130.909V261.778H261.818Z" fill="white"/>
<path d="M261.818 392.667V523.556H130.909V392.667H261.818Z" fill="white"/>
<path d="M261.818 523.556V654.445H130.909V523.556H261.818Z" fill="white"/>
<path d="M261.818 654.444V785.333H130.909V654.444H261.818Z" fill="white"/>
<path d="M261.818 785.333V916.222H130.909V785.333H261.818Z" fill="white"/>
<path d="M130.909 5.72134e-06V130.889H0L5.72222e-06 0L130.909 5.72134e-06Z" fill="white"/>
<path d="M130.909 130.889V261.778H0L5.72224e-06 130.889H130.909Z" fill="white"/>
<path d="M130.909 261.778V392.667H0L5.72224e-06 261.778H130.909Z" fill="white"/>
<path d="M130.909 392.667V523.556H0L5.72216e-06 392.667H130.909Z" fill="white"/>
<path d="M130.909 523.556V654.445H0L5.72224e-06 523.556H130.909Z" fill="white"/>
<path d="M130.909 654.444V785.333H0L5.72224e-06 654.444H130.909Z" fill="white"/>
<path d="M130.909 785.333V916.222H0L5.72216e-06 785.333H130.909Z" fill="white"/>
</mask>
<g mask="url(#mask1_15_71)">
<path d="M1440 130.49H1309.09V131.288H1440V130.49ZM1309.49 130.889V6.47371e-05L1308.69 6.41663e-05V130.889H1309.49ZM1440 261.379H1309.09V262.177H1440V261.379ZM1309.49 261.778V130.889H1308.69V261.778H1309.49ZM1440 392.268H1309.09V393.066H1440V392.268ZM1309.49 392.667V261.778H1308.69V392.667H1309.49ZM1440 523.157H1309.09V523.955H1440V523.157ZM1309.49 523.556V392.667H1308.69V523.556H1309.49ZM1440 654.045H1309.09V654.843H1440V654.045ZM1309.49 654.444V523.556H1308.69V654.444H1309.49ZM1440 784.934H1309.09V785.732H1440V784.934ZM1309.49 785.333V654.444H1308.69V785.333H1309.49ZM1440 915.823H1309.09V916.621H1440V915.823ZM1309.49 916.222V785.333H1308.69V916.222H1309.49ZM1440 1046.71H1309.09V1047.51H1440V1046.71ZM1309.49 1047.11V916.222H1308.69V1047.11H1309.49ZM1309.49 1178V1047.11H1308.69V1178H1309.49ZM1309.09 130.49H1178.18V131.288H1309.09V130.49ZM1178.58 130.889V5.90286e-05L1177.78 5.84578e-05V130.889H1178.58ZM1309.09 261.379H1178.18V262.177H1309.09V261.379ZM1178.58 261.778V130.889H1177.78V261.778H1178.58ZM1309.09 392.268H1178.18V393.066H1309.09V392.268ZM1178.58 392.667V261.778H1177.78V392.667H1178.58ZM1309.09 523.157H1178.18V523.955H1309.09V523.157ZM1178.58 523.556V392.667H1177.78V523.556H1178.58ZM1309.09 654.045H1178.18V654.843H1309.09V654.045ZM1178.58 654.444V523.556H1177.78V654.444H1178.58ZM1309.09 784.934H1178.18V785.732H1309.09V784.934ZM1178.58 785.333V654.444H1177.78V785.333H1178.58ZM1309.09 915.823H1178.18V916.621H1309.09V915.823ZM1178.58 916.222V785.333H1177.78V916.222H1178.58ZM1309.09 1046.71H1178.18V1047.51H1309.09V1046.71ZM1178.58 1047.11V916.222H1177.78V1047.11H1178.58ZM1178.58 1178V1047.11H1177.78V1178H1178.58ZM1178.18 130.49H1047.27V131.288H1178.18V130.49ZM1047.67 130.889V5.33202e-05L1046.87 5.27493e-05V130.889H1047.67ZM1178.18 261.379H1047.27V262.177H1178.18V261.379ZM1047.67 261.778V130.889H1046.87V261.778H1047.67ZM1178.18 392.268H1047.27V393.066H1178.18V392.268ZM1047.67 392.667V261.778H1046.87V392.667H1047.67ZM1178.18 523.157H1047.27V523.955H1178.18V523.157ZM1047.67 523.556V392.667H1046.87V523.556H1047.67ZM1178.18 654.045H1047.27V654.843H1178.18V654.045ZM1047.67 654.444V523.556H1046.87V654.444H1047.67ZM1178.18 784.934H1047.27V785.732H1178.18V784.934ZM1047.67 785.333V654.444H1046.87V785.333H1047.67ZM1178.18 915.823H1047.27V916.621H1178.18V915.823ZM1047.67 916.222V785.333H1046.87V916.222H1047.67ZM1178.18 1046.71H1047.27V1047.51H1178.18V1046.71ZM1047.67 1047.11V916.222H1046.87V1047.11H1047.67ZM1047.67 1178V1047.11H1046.87V1178H1047.67ZM1047.27 130.49H916.364V131.288H1047.27V130.49ZM916.763 130.889V4.76117e-05L915.964 4.70408e-05V130.889H916.763ZM1047.27 261.379H916.364V262.177H1047.27V261.379ZM916.763 261.778V130.889H915.964V261.778H916.763ZM1047.27 392.268H916.364V393.066H1047.27V392.268ZM916.763 392.667V261.778H915.964V392.667H916.763ZM1047.27 523.157H916.364V523.955H1047.27V523.157ZM916.763 523.556V392.667H915.964V523.556H916.763ZM1047.27 654.045H916.364V654.843H1047.27V654.045ZM916.763 654.444V523.556H915.964V654.444H916.763ZM1047.27 784.934H916.364V785.732H1047.27V784.934ZM916.763 785.333V654.444H915.964V785.333H916.763ZM1047.27 915.823H916.364V916.621H1047.27V915.823ZM916.763 916.222V785.333H915.964V916.222H916.763ZM1047.27 1046.71H916.364V1047.51H1047.27V1046.71ZM916.763 1047.11V916.222H915.964V1047.11H916.763ZM916.763 1178V1047.11H915.964V1178H916.763ZM916.364 130.49H785.454V131.288H916.364V130.49ZM785.854 130.889V4.16178e-05H785.055V130.889H785.854ZM916.364 261.379H785.454V262.177H916.364V261.379ZM785.854 261.778V130.889H785.055V261.778H785.854ZM916.364 392.268H785.454V393.066H916.364V392.268ZM785.854 392.667V261.778H785.055V392.667H785.854ZM916.364 523.157H785.454V523.955H916.364V523.157ZM785.854 523.556V392.667H785.055V523.556H785.854ZM916.364 654.045H785.454V654.843H916.364V654.045ZM785.854 654.444V523.556H785.055V654.444H785.854ZM916.364 784.934H785.454V785.732H916.364V784.934ZM785.854 785.333V654.444H785.055V785.333H785.854ZM916.364 915.823H785.454V916.621H916.364V915.823ZM785.854 916.222V785.333H785.055V916.222H785.854ZM916.364 1046.71H785.454V1047.51H916.364V1046.71ZM785.854 1047.11V916.222H785.055V1047.11H785.854ZM785.854 1178V1047.11H785.055V1178H785.854ZM785.454 130.49H654.545V131.288H785.454V130.49ZM654.945 130.889V3.59093e-05H654.146V130.889H654.945ZM785.454 261.379H654.545V262.177H785.454V261.379ZM654.945 261.778V130.889H654.146V261.778H654.945ZM785.454 392.268H654.545V393.066H785.454V392.268ZM654.945 392.667V261.778H654.146V392.667H654.945ZM785.454 523.157H654.545V523.955H785.454V523.157ZM654.945 523.556V392.667H654.146V523.556H654.945ZM785.454 654.045H654.545V654.843H785.454V654.045ZM654.945 654.444V523.556H654.146V654.444H654.945ZM785.454 784.934H654.545V785.732H785.454V784.934ZM654.945 785.333V654.444H654.146V785.333H654.945ZM785.454 915.823H654.545V916.621H785.454V915.823ZM654.945 916.222V785.333H654.146V916.222H654.945ZM785.454 1046.71H654.545V1047.51H785.454V1046.71ZM654.945 1047.11V916.222H654.146V1047.11H654.945ZM654.945 1178V1047.11H654.146V1178H654.945ZM654.545 130.49H523.636V131.288H654.545V130.49ZM524.035 130.889V3.02008e-05H523.237V130.889H524.035ZM654.545 261.379H523.636V262.177H654.545V261.379ZM524.035 261.778V130.889H523.237V261.778H524.035ZM654.545 392.268H523.636V393.066H654.545V392.268ZM524.035 392.667V261.778H523.237V392.667H524.035ZM654.545 523.157H523.636V523.955H654.545V523.157ZM524.035 523.556V392.667H523.237V523.556H524.035ZM654.545 654.045H523.636V654.843H654.545V654.045ZM524.035 654.444V523.556H523.237V654.444H524.035ZM654.545 784.934H523.636V785.732H654.545V784.934ZM524.035 785.333V654.444H523.237V785.333H524.035ZM654.545 915.823H523.636V916.621H654.545V915.823ZM524.035 916.222V785.333H523.237V916.222H524.035ZM654.545 1046.71H523.636V1047.51H654.545V1046.71ZM524.035 1047.11V916.222H523.237V1047.11H524.035ZM524.035 1178V1047.11H523.237V1178H524.035ZM523.636 130.49H392.727V131.288H523.636V130.49ZM393.126 130.889V2.43972e-05H392.328V130.889H393.126ZM523.636 261.379H392.727V262.177H523.636V261.379ZM393.126 261.778V130.889H392.328V261.778H393.126ZM523.636 392.268H392.727V393.066H523.636V392.268ZM393.126 392.667V261.778H392.328V392.667H393.126ZM523.636 523.157H392.727V523.955H523.636V523.157ZM393.126 523.556V392.667H392.328V523.556H393.126ZM523.636 654.045H392.727V654.843H523.636V654.045ZM393.126 654.444V523.556H392.328V654.444H393.126ZM523.636 784.934H392.727V785.732H523.636V784.934ZM393.126 785.333V654.444H392.328V785.333H393.126ZM523.636 915.823H392.727V916.621H523.636V915.823ZM393.126 916.222V785.333H392.328V916.222H393.126ZM523.636 1046.71H392.727V1047.51H523.636V1046.71ZM393.126 1047.11V916.222H392.328V1047.11H393.126ZM393.126 1178V1047.11H392.328V1178H393.126ZM392.727 130.49H261.818V131.288H392.727V130.49ZM262.217 130.889V1.86887e-05H261.419V130.889H262.217ZM392.727 261.379H261.818V262.177H392.727V261.379ZM262.217 261.778V130.889H261.419V261.778H262.217ZM392.727 392.268H261.818V393.066H392.727V392.268ZM262.217 392.667V261.778H261.419V392.667H262.217ZM392.727 523.157H261.818V523.955H392.727V523.157ZM262.217 523.556V392.667H261.419V523.556H262.217ZM392.727 654.045H261.818V654.843H392.727V654.045ZM262.217 654.444V523.556H261.419V654.444H262.217ZM392.727 784.934H261.818V785.732H392.727V784.934ZM262.217 785.333V654.444H261.419V785.333H262.217ZM392.727 915.823H261.818V916.621H392.727V915.823ZM262.217 916.222V785.333H261.419V916.222H262.217ZM392.727 1046.71H261.818V1047.51H392.727V1046.71ZM262.217 1047.11V916.222H261.419V1047.11H262.217ZM262.217 1178V1047.11H261.419V1178H262.217ZM261.818 130.49H130.909V131.288H261.818V130.49ZM131.308 130.889V1.29802e-05H130.51V130.889H131.308ZM261.818 261.379H130.909V262.177H261.818V261.379ZM131.308 261.778V130.889H130.51V261.778H131.308ZM261.818 392.268H130.909V393.066H261.818V392.268ZM131.308 392.667V261.778H130.51V392.667H131.308ZM261.818 523.157H130.909V523.955H261.818V523.157ZM131.308 523.556V392.667H130.51V523.556H131.308ZM261.818 654.045H130.909V654.843H261.818V654.045ZM131.308 654.444V523.556H130.51V654.444H131.308ZM261.818 784.934H130.909V785.732H261.818V784.934ZM131.308 785.333V654.444H130.51V785.333H131.308ZM261.818 915.823H130.909V916.621H261.818V915.823ZM131.308 916.222V785.333H130.51V916.222H131.308ZM261.818 1046.71H130.909V1047.51H261.818V1046.71ZM131.308 1047.11V916.222H130.51V1047.11H131.308ZM131.308 1178V1047.11H130.51V1178H131.308ZM130.909 130.49H-6.87524e-05V131.288H130.909V130.49ZM130.909 261.379H-7.44618e-05V262.177H130.909V261.379ZM130.909 392.268H-8.01712e-05V393.066H130.909V392.268ZM130.909 523.157H-8.58805e-05V523.955H130.909V523.157ZM130.909 654.045H-9.15899e-05V654.843H130.909V654.045ZM130.909 784.934H-9.73944e-05V785.732H130.909V784.934ZM130.909 915.823H-0.000103104V916.621H130.909V915.823ZM130.909 1046.71H-0.000108813V1047.51H130.909V1046.71ZM1440 7.01602e-05L1440.8 7.08261e-05V-0.798033H1440V7.01602e-05ZM1440 1178V1178.8H1440.8V1178H1440ZM-6.30431e-05 7.27177e-06L-6.29479e-05 -0.798096H-0.798289L-0.79829 7.2242e-06L-6.30431e-05 7.27177e-06ZM-0.000114522 1178H-0.79834V1178.8H-0.000114522V1178ZM1439.2 6.95893e-05V130.889H1440.8V7.08261e-05L1439.2 6.95893e-05ZM1309.09 0.798166L1440 0.798174V-0.798033L1309.09 -0.798038V0.798166ZM1439.2 130.889V261.778H1440.8V130.889H1439.2ZM1439.2 261.778V392.667H1440.8V261.778H1439.2ZM1439.2 392.667V523.556H1440.8V392.667H1439.2ZM1439.2 523.556V654.444H1440.8V523.556H1439.2ZM1439.2 654.444V785.333H1440.8V654.444H1439.2ZM1439.2 785.333V916.222H1440.8V785.333H1439.2ZM1439.2 916.222V1047.11H1440.8V916.222H1439.2ZM1439.2 1047.11V1178H1440.8V1047.11H1439.2ZM1440 1177.2H1309.09V1178.8H1440V1177.2ZM1178.18 0.798158L1309.09 0.798166V-0.798038L1178.18 -0.798044V0.798158ZM1309.09 1177.2H1178.18V1178.8H1309.09V1177.2ZM1047.27 0.798158H1178.18V-0.798044L1047.27 -0.79805V0.798158ZM1178.18 1177.2H1047.27V1178.8H1178.18V1177.2ZM916.364 0.79815L1047.27 0.798158V-0.79805L916.364 -0.798056V0.79815ZM1047.27 1177.2H916.364V1178.8H1047.27V1177.2ZM785.454 0.798142L916.364 0.79815V-0.798056L785.454 -0.798061V0.798142ZM916.364 1177.2H785.454V1178.8H916.364V1177.2ZM654.545 0.798142H785.454V-0.798061L654.545 -0.798067V0.798142ZM785.454 1177.2H654.545V1178.8H785.454V1177.2ZM523.636 0.798134L654.545 0.798142V-0.798067L523.636 -0.798073V0.798134ZM654.545 1177.2H523.636V1178.8H654.545V1177.2ZM392.727 0.798126L523.636 0.798134V-0.798073L392.727 -0.798078V0.798126ZM523.636 1177.2H392.727V1178.8H523.636V1177.2ZM261.818 0.798118L392.727 0.798126V-0.798078L261.818 -0.798085V0.798118ZM392.727 1177.2H261.818V1178.8H392.727V1177.2ZM130.909 0.798118H261.818V-0.798085L130.909 -0.79809V0.798118ZM261.818 1177.2H130.909V1178.8H261.818V1177.2ZM0.798157 130.889L0.79816 7.27177e-06L-0.79829 7.2242e-06L-0.798292 130.889H0.798157ZM-6.30431e-05 0.79811L130.909 0.798118V-0.79809L-6.29479e-05 -0.798096L-6.30431e-05 0.79811ZM0.798152 261.778L0.798157 130.889H-0.798292L-0.7983 261.778H0.798152ZM0.798146 392.667L0.798152 261.778H-0.7983L-0.798308 392.667H0.798146ZM0.79814 523.556L0.798146 392.667H-0.798308L-0.798316 523.556H0.79814ZM0.798135 654.444L0.79814 523.556H-0.798316V654.444H0.798135ZM0.798128 785.333L0.798135 654.444H-0.798316L-0.798324 785.333H0.798128ZM0.798123 916.222L0.798128 785.333H-0.798324L-0.798332 916.222H0.798123ZM0.798117 1047.11L0.798123 916.222H-0.798332V1047.11H0.798117ZM130.909 1177.2H-0.000114522V1178.8H130.909V1177.2ZM0.798112 1178L0.798117 1047.11H-0.798332L-0.79834 1178H0.798112Z" fill="#8B5CF6"/>
</g>
</g>
</g>
<defs>
<filter id="filter0_f_15_71" x="-268" y="-408" width="1995" height="1995" filterUnits="userSpaceOnUse" color-interpolation-filters="sRGB">
<feFlood flood-opacity="0" result="BackgroundImageFix"/>
<feBlend mode="normal" in="SourceGraphic" in2="BackgroundImageFix" result="shape"/>
<feGaussianBlur stdDeviation="250" result="effect1_foregroundBlur_15_71"/>
</filter>
<radialGradient id="paint0_radial_15_71" cx="0" cy="0" r="1" gradientUnits="userSpaceOnUse" gradientTransform="translate(720 414) rotate(90) scale(414 960.906)">
<stop stop-opacity="0.5"/>
<stop offset="1" stop-opacity="0"/>
</radialGradient>
<clipPath id="clip0_15_71">
<rect width="1440" height="821" fill="white"/>
</clipPath>
</defs>
</svg>
